# xmcd
#
# Track frame offsets: 
#        150
#        10071
#        21610
#        38167
#        55703
#        66951
#        82815
#        89495
#        97339
#        113595
#        122563
#        137034
#        158496
#        164392
#
# Disc length: 2348 seconds
#
# Revision: 0
# Processed by: cddbd v1.5.2PL0 Copyright (c) Steve Scherf et al.
# Submitted via: ExactAudioCopyFreeDBPlugin 1.0
#
DISCID=af092a0e
DTITLE=濱口祐自 - Yuji Hamaguchi from KatsuUra
DYEAR=2014
DGENRE=Blues
TTITLE0=Dr.O's Rag
TTITLE1=Ethnic Wind
TTITLE2=Geronimo
TTITLE3=Gnossiennes no.1
TTITLE4=Big City Farewell
TTITLE5=Autumn Petals - Amazing Grace
TTITLE6=Bamboo Blues
TTITLE7=Hexagon Blues
TTITLE8=Manha de Carnaval
TTITLE9=Triste Fragrancia
TTITLE10=Tennessee Waltz
TTITLE11=Blues from KatsuUra
TTITLE12=Picnic
TTITLE13=Rally'Round the Flag
EXTD=
EXTT0=
EXTT1=
EXTT2=
EXTT3=
EXTT4=
EXTT5=
EXTT6=
EXTT7=
EXTT8=
EXTT9=
EXTT10=
EXTT11=
EXTT12=
EXTT13=
PLAYORDER=
